<svg width="10" height="10" viewBox="0 0 10 10" fill="none" xmlns="http://www.w3.org/2000/svg">
<path d="M9.86203 2.52174C9.79266 2.43994 9.69329 2.39319 9.58915 2.39319H7.65761V3.41883C7.65761 3.89011 7.25347 4.27353 6.75671 4.27353C6.25996 4.27353 5.85581 3.89011 5.85581 3.41883V2.39319H4.05401V3.41883C4.05401 3.89011 3.64987 4.27353 3.15311 4.27353C2.65635 4.27353 2.25221 3.89011 2.25221 3.41883V2.39319H0.320768C0.216534 2.39319 0.117164 2.43994 0.0477949 2.52174C-0.0216646 2.60353 -0.0545475 2.71259 -0.0426556 2.82148L0.605543 8.78464C0.617615 9.45695 1.14167 10 1.78419 10H8.12572C8.76815 10 9.29221 9.45695 9.30437 8.78455L9.95257 2.82139C9.96437 2.71259 9.93149 2.60353 9.86203 2.52174Z" fill="#FFC600"/>
<path d="M3.15309 3.76068C3.35182 3.76068 3.51345 3.60735 3.51345 3.4188V1.53846C3.51345 1.01051 4.07462 0.683761 4.59453 0.683761H5.49543C6.04264 0.683761 6.39633 1.01923 6.39633 1.53846V3.4188C6.39633 3.60735 6.55804 3.76068 6.75669 3.76068C6.95534 3.76068 7.11705 3.60735 7.11705 3.4188V1.53846C7.11705 0.647009 6.43507 0 5.49543 0H4.59453C3.60101 0 2.79272 0.690171 2.79272 1.53846V3.4188C2.79272 3.60735 2.95435 3.76068 3.15309 3.76068Z" fill="#FFC600"/>
</svg>
